<svg width="465.40000000000003" height="86.48083441214703" viewBox="0 0 406 75.44310006732208" class="looka-1j8o68f"><defs id="SvgjsDefs4313"></defs><g id="SvgjsG4314" featurekey="symbolFeature-0" transform="matrix(0.7544235181401582,0,0,0.7544235181401582,0,0)" fill="#00989e"><path xmlns="http://www.w3.org/2000/svg" d="M65.808,52.441l-1.007-14.968c-0.181-2.169-1.999-3.848-4.221-3.848H19.407c-2.221,0-4.04,1.678-4.232,3.848  l-0.98,14.968H65.808z M74.479,67.796c0-3.071-2.478-5.574-5.549-5.574c-3.07,0-5.575,2.503-5.575,5.574  c0,3.07,2.503,5.548,5.575,5.548S74.479,70.866,74.479,67.796 M58.247,76.13V62.105c0-1.395-1.136-2.528-2.529-2.528H24.167  c-1.354,0-2.49,1.134-2.49,2.528V76.13H58.247z M11.057,73.344c3.059,0,5.55-2.478,5.55-5.548c0-3.071-2.492-5.574-5.55-5.574  c-3.07,0-5.561,2.503-5.561,5.574C5.496,70.866,7.987,73.344,11.057,73.344 M60.581,29.69c4.259,0,7.769,3.304,8.116,7.486  l1.033,15.42L79.988,58.8l-0.026,26.053H75.38l0.026,8.517c0,3.689-2.981,6.631-6.658,6.631c-3.652,0-6.62-2.941-6.62-6.631v-8.517  H17.846l0.026,8.517c0,3.689-2.981,6.631-6.66,6.631c-3.65,0-6.619-2.941-6.619-6.631v-8.517H0.025L0,58.8l10.258-6.204l1.032-15.42  c0.323-4.182,3.833-7.486,8.117-7.486H60.581z"></path><path xmlns="http://www.w3.org/2000/svg" d="M72.634,0c4.051,0,7.327,3.279,7.327,7.304v47.293l-6.748-4.143l-0.878-13.807  c-0.605-5.949-5.651-10.607-11.756-10.607H19.404c-6.127,0-11.135,4.658-11.742,10.607l-0.89,13.807L0,54.598L0.024,7.304  C0.024,3.279,3.301,0,7.328,0H72.634z"></path></g><g id="SvgjsG4315" featurekey="textGroupContainer" transform="matrix(1,0,0,1,405,10)" fill="#111111"><rect xmlns="http://www.w3.org/2000/svg" y="0" height="1" width="1" opacity="0"></rect><rect xmlns="http://www.w3.org/2000/svg" y="0" x="-325" width="3" height="56"></rect></g><g id="SvgjsG4316" featurekey="vMvB0T-0" transform="matrix(1.9828530174088228,0,0,1.9828530174088228,97.88102869604073,12.063221091026815)" fill="#111111"><path d="M6.7 8.98 l0.02 1.48 l0 9.54 q-0.68 0.12 -1.62 0.12 t-1.58 -0.12 l0 -11.02 l-1.28 0.02 l-2.06 0 q-0.12 -0.58 -0.12 -1.33 t0.12 -1.33 l9.9 0 q0.16 0.52 0.16 1.26 t-0.4 1.07 t-1.28 0.33 l-0.58 0 l-1.26 -0.02 l-0.02 0 z M21.520000000000003 10.56 q0 0.66 -0.2 1.25 t-0.53 1.06 t-0.78 0.82 t-0.93 0.53 q1.04 0.38 1.54 1.84 l0.6 1.7 q0.34 1 1 1.48 q-0.3 0.4 -0.9 0.67 t-1.32 0.27 t-1.12 -0.41 t-0.74 -1.43 l-0.72 -2.1 q-0.22 -0.6 -0.59 -0.92 t-1.11 -0.32 l-0.82 0 l0 5 q-0.64 0.12 -1.6 0.12 t-1.58 -0.12 l0 -13.56 l0.14 -0.14 q1.74 -0.04 2.93 -0.06 t1.87 -0.02 q1.1 0 2 0.27 t1.53 0.81 t0.98 1.36 t0.35 1.9 z M14.900000000000002 8.62 l0 3.92 q0.9 0 1.54 -0.03 t1.03 -0.24 t0.59 -0.59 t0.2 -1.1 q0 -1.94 -1.88 -1.94 l-0.83 0 t-0.65 -0.02 z M34.379999999999995 6.34 l0 8.62 q0 2.56 -1.4 3.95 t-4 1.39 t-4.01 -1.39 t-1.41 -3.95 l0 -8.62 l0.14 -0.14 l1.18 0 q1.9 0 1.9 2.04 l0 6.76 q0 1.4 0.5 2.08 t1.7 0.68 t1.7 -0.68 t0.5 -2.08 l0 -8.66 q0.62 -0.12 1.6 -0.12 q0.96 0 1.6 0.12 z M44.36 11.78 l0 -0.24 q0 -2.96 -2.2 -2.96 q-1.26 0 -1.82 1.15 t-0.56 3.39 q0 2.22 0.7 3.3 t2.04 1.08 q0.7 0 1.55 -0.33 t1.85 -1.05 q0.5 0.34 0.93 0.93 t0.53 1.13 q-0.46 0.44 -1.07 0.83 t-1.32 0.67 t-1.48 0.45 t-1.55 0.17 q-1.54 0 -2.6 -0.59 t-1.71 -1.57 t-0.94 -2.26 t-0.29 -2.66 q0 -1.8 0.45 -3.15 t1.22 -2.25 t1.81 -1.35 t2.22 -0.45 q1.2 0 2.18 0.32 t1.67 0.88 t1.06 1.32 t0.37 1.64 q0 1.78 -1.82 1.78 q-0.54 0 -1.22 -0.18 z M60.160000000000004 19.22 q-0.68 0.96 -2.12 0.96 q-0.82 0 -1.23 -0.42 t-0.71 -1.42 l-0.76 -2.34 q-0.3 -0.94 -0.72 -1.34 t-1.14 -0.4 q-0.24 0 -0.88 0.04 l0 5.7 q-0.62 0.12 -1.6 0.12 t-1.6 -0.12 l0 -13.66 q0.62 -0.12 1.6 -0.12 t1.6 0.12 l0 5.28 l0.52 -0.02 q0.36 0 0.52 -0.13 t0.38 -0.55 l1.9 -3.58 q0.3 -0.62 0.64 -0.87 t1.06 -0.25 q0.8 0 1.86 0.1 l0.18 0.22 l-2.44 4.6 q-0.46 0.92 -1.12 1.46 q0.94 0.2 1.41 0.76 t0.79 1.5 l0.82 2.48 q0.16 0.46 0.24 0.68 t0.4 0.74 q0.14 0.2 0.4 0.46 z M67 8.98 l0.02 1.48 l0 9.54 q-0.68 0.12 -1.62 0.12 t-1.58 -0.12 l0 -11.02 l-1.28 0.02 l-2.06 0 q-0.12 -0.58 -0.12 -1.33 t0.12 -1.33 l9.9 0 q0.16 0.52 0.16 1.26 t-0.4 1.07 t-1.28 0.33 l-0.58 0 l-1.26 -0.02 l-0.02 0 z M81.82 10.56 q0 0.66 -0.2 1.25 t-0.53 1.06 t-0.78 0.82 t-0.93 0.53 q1.04 0.38 1.54 1.84 l0.6 1.7 q0.34 1 1 1.48 q-0.3 0.4 -0.9 0.67 t-1.32 0.27 t-1.12 -0.41 t-0.74 -1.43 l-0.72 -2.1 q-0.22 -0.6 -0.59 -0.92 t-1.11 -0.32 l-0.82 0 l0 5 q-0.64 0.12 -1.6 0.12 t-1.58 -0.12 l0 -13.56 l0.14 -0.14 q1.74 -0.04 2.93 -0.06 t1.87 -0.02 q1.1 0 2 0.27 t1.53 0.81 t0.98 1.36 t0.35 1.9 z M75.2 8.62 l0 3.92 q0.9 0 1.54 -0.03 t1.03 -0.24 t0.59 -0.59 t0.2 -1.1 q0 -1.94 -1.88 -1.94 l-0.83 0 t-0.65 -0.02 z M94.67999999999999 6.34 l0 8.62 q0 2.56 -1.4 3.95 t-4 1.39 t-4.01 -1.39 t-1.41 -3.95 l0 -8.62 l0.14 -0.14 l1.18 0 q1.9 0 1.9 2.04 l0 6.76 q0 1.4 0.5 2.08 t1.7 0.68 t1.7 -0.68 t0.5 -2.08 l0 -8.66 q0.62 -0.12 1.6 -0.12 q0.96 0 1.6 0.12 z M104.66 11.78 l0 -0.24 q0 -2.96 -2.2 -2.96 q-1.26 0 -1.82 1.15 t-0.56 3.39 q0 2.22 0.7 3.3 t2.04 1.08 q0.7 0 1.55 -0.33 t1.85 -1.05 q0.5 0.34 0.93 0.93 t0.53 1.13 q-0.46 0.44 -1.07 0.83 t-1.32 0.67 t-1.48 0.45 t-1.55 0.17 q-1.54 0 -2.6 -0.59 t-1.71 -1.57 t-0.94 -2.26 t-0.29 -2.66 q0 -1.8 0.45 -3.15 t1.22 -2.25 t1.81 -1.35 t2.22 -0.45 q1.2 0 2.18 0.32 t1.67 0.88 t1.06 1.32 t0.37 1.64 q0 1.78 -1.82 1.78 q-0.54 0 -1.22 -0.18 z M120.46000000000001 19.22 q-0.68 0.96 -2.12 0.96 q-0.82 0 -1.23 -0.42 t-0.71 -1.42 l-0.76 -2.34 q-0.3 -0.94 -0.72 -1.34 t-1.14 -0.4 q-0.24 0 -0.88 0.04 l0 5.7 q-0.62 0.12 -1.6 0.12 t-1.6 -0.12 l0 -13.66 q0.62 -0.12 1.6 -0.12 t1.6 0.12 l0 5.28 l0.52 -0.02 q0.36 0 0.52 -0.13 t0.38 -0.55 l1.9 -3.58 q0.3 -0.62 0.64 -0.87 t1.06 -0.25 q0.8 0 1.86 0.1 l0.18 0.22 l-2.44 4.6 q-0.46 0.92 -1.12 1.46 q0.94 0.2 1.41 0.76 t0.79 1.5 l0.82 2.48 q0.16 0.46 0.24 0.68 t0.4 0.74 q0.14 0.2 0.4 0.46 z M127.24000000000001 12.24 l3.14 -0.02 q2.12 0 2.12 2 l0 5.26 q-2.58 0.82 -5.42 0.82 q-1.44 0 -2.55 -0.48 t-1.86 -1.38 t-1.13 -2.21 t-0.38 -2.97 q0 -1.82 0.53 -3.17 t1.42 -2.25 t2.05 -1.35 t2.42 -0.45 q2.6 0 4.88 1.44 q-0.02 0.32 -0.15 0.65 t-0.32 0.64 t-0.44 0.56 t-0.51 0.43 q-1.66 -1.08 -3.36 -1.08 q-3.26 0 -3.26 4.56 q0 4.54 3.34 4.54 q0.46 0 0.89 -0.04 t0.85 -0.12 l0 -1.34 q0 -0.46 0.01 -0.8 t0.03 -0.58 l-1 0 q-0.86 0 -1.19 -0.33 t-0.33 -1.03 q0 -0.6 0.22 -1.3 z M138 16.28 q0.54 1.56 2.18 1.56 q0.82 0 1.33 -0.41 t0.8 -1.04 t0.39 -1.41 t0.1 -1.54 q0 -0.7 -0.05 -1.56 t-0.29 -1.61 t-0.76 -1.26 t-1.52 -0.51 q-0.96 0 -1.47 0.49 t-0.76 1.21 t-0.31 1.53 t-0.06 1.43 q0 0.92 0.09 1.64 t0.33 1.48 z M136.38000000000002 19.04 q-2.14 -1.78 -2.14 -5.86 q0 -1.76 0.41 -3.09 t1.18 -2.23 t1.87 -1.36 t2.48 -0.46 t2.49 0.46 t1.88 1.37 t1.18 2.24 t0.41 3.07 t-0.41 3.07 t-1.18 2.23 t-1.88 1.36 t-2.49 0.46 q-2.28 0 -3.8 -1.26 z"></path></g></svg>