<?xml version="1.0" standalone="no"?>
<!DOCTYPE svg PUBLIC "-//W3C//DTD SVG 20010904//EN"
 "http://www.w3.org/TR/2001/REC-SVG-20010904/DTD/svg10.dtd">
<svg version="1.0" xmlns="http://www.w3.org/2000/svg"
 width="800.000000pt" height="800.000000pt" viewBox="0 0 800.000000 800.000000"
 preserveAspectRatio="xMidYMid meet">
<metadata>
Created by potrace 1.14, written by Peter Selinger 2001-2017
</metadata>
<g transform="translate(0.000000,800.000000) scale(0.100000,-0.100000)"
fill="#000000" stroke="none">
<path d="M1252 7984 c-129 -34 -255 -117 -328 -216 -46 -62 -89 -145 -98 -190
-3 -13 -9 -37 -14 -54 -11 -34 -17 -3914 -6 -3914 3 0 18 8 32 19 15 10 74 47
132 81 58 35 128 78 155 95 28 17 89 55 136 85 l86 53 3 56 c1 31 4 79 5 106
2 28 6 93 9 145 3 52 8 124 11 160 3 36 8 108 11 160 3 52 7 113 9 135 1 22 6
92 9 155 13 230 20 279 53 379 25 78 85 205 109 232 8 8 14 19 14 22 0 24 179
202 252 250 94 62 219 117 301 133 10 2 26 5 35 8 9 3 40 8 67 12 71 9 3477
11 3549 2 59 -8 81 -12 124 -22 12 -4 30 -8 40 -10 61 -15 179 -72 262 -129
185 -126 323 -318 380 -530 27 -104 29 -116 45 -377 3 -41 7 -104 9 -140 3
-36 8 -110 11 -165 3 -55 8 -134 11 -175 8 -125 13 -210 19 -310 4 -52 9 -98
13 -102 4 -3 117 -74 252 -157 l245 -151 3 1993 2 1992 -36 71 c-37 73 -84
129 -157 187 -69 55 -110 76 -232 115 -11 4 -1246 8 -2745 9 -2333 1 -2733 0
-2778 -13z"/>
<path d="M2269 5606 c-2 -2 -20 -7 -39 -10 -115 -19 -245 -90 -341 -188 -76
-76 -146 -205 -164 -299 -3 -13 -7 -35 -10 -49 -2 -14 -7 -61 -10 -105 -5 -76
-9 -134 -20 -290 -3 -38 -8 -110 -11 -160 -3 -49 -7 -115 -9 -145 -2 -30 -7
-95 -10 -145 -3 -49 -7 -117 -10 -150 -2 -33 -7 -109 -10 -170 -4 -60 -11
-117 -15 -126 -5 -8 -30 -27 -57 -41 -66 -35 -157 -91 -161 -100 -2 -5 -8 -8
-13 -8 -8 0 -209 -119 -219 -130 -3 -3 -16 -11 -30 -18 -32 -15 -71 -39 -140
-83 -30 -19 -62 -38 -70 -42 -8 -4 -28 -16 -45 -27 -16 -11 -42 -26 -58 -35
l-27 -16 2 -1047 3 -1047 179 -2 c98 -1 180 -3 182 -5 2 -3 4 -170 4 -374 1
-213 6 -390 12 -419 26 -128 116 -258 230 -334 l60 -41 227 0 c253 0 257 1
350 80 44 37 121 132 121 150 0 5 5 10 12 10 6 0 8 3 5 7 -4 3 -3 11 1 17 5 6
17 38 28 71 17 55 19 94 19 448 l0 387 60 0 c71 1 3413 1 3467 0 l37 0 1 -362
c0 -200 3 -379 6 -398 18 -122 73 -226 167 -314 103 -97 107 -98 373 -94 l229
3 50 34 c72 49 147 132 183 205 57 114 61 148 59 552 -1 201 2 368 6 371 4 2
79 5 167 5 l160 0 -2 1061 -3 1061 -80 47 c-44 26 -85 53 -92 58 -7 6 -14 11
-17 11 -3 0 -64 36 -135 80 -72 44 -135 80 -141 80 -5 0 -10 3 -10 8 0 4 -9
12 -20 17 -41 20 -279 165 -284 173 -4 7 -12 97 -21 242 -2 36 -7 101 -10 145
-12 175 -16 233 -20 300 -4 72 -11 176 -20 300 -2 39 -7 111 -10 160 -12 174
-23 224 -76 330 -85 172 -257 309 -439 351 -35 8 -3543 18 -3551 10z m3491
-320 c149 -47 242 -161 254 -311 10 -125 17 -218 21 -310 3 -49 5 -90 6 -90 1
0 2 -5 13 -175 4 -58 9 -134 12 -170 2 -36 6 -96 9 -135 14 -233 17 -272 20
-293 l4 -22 -2079 0 -2079 0 4 53 c2 28 7 97 10 152 3 55 8 123 10 150 2 28 7
95 10 150 4 55 8 123 10 150 2 28 7 93 10 145 3 52 8 124 10 160 3 36 7 106
10 155 3 50 7 97 9 105 4 22 17 73 22 88 2 7 4 14 4 17 1 20 112 130 150 150
78 40 62 40 1831 39 937 0 1715 -4 1729 -8z m-386 -2106 c28 -14 58 -37 68
-51 45 -61 45 -72 44 -678 l-1 -576 -1467 0 c-1006 -1 -1469 2 -1471 10 -2 5
-3 269 -2 585 2 640 1 631 69 684 72 55 -3 52 1405 51 l1306 0 49 -25z m-3559
-205 c105 -26 225 -130 275 -237 34 -73 39 -92 44 -175 9 -167 -86 -333 -235
-411 -64 -33 -74 -36 -159 -51 -64 -10 -180 11 -255 48 -105 52 -207 181 -231
291 -35 165 17 326 145 446 28 27 141 86 175 92 107 18 155 18 241 -3z m4694
-15 c69 -27 97 -46 152 -100 55 -54 92 -119 115 -195 15 -53 21 -156 11 -200
-9 -38 -41 -130 -49 -140 -4 -5 -26 -34 -48 -62 -22 -29 -53 -61 -68 -70 -15
-10 -29 -20 -32 -23 -15 -18 -113 -55 -170 -66 -93 -16 -240 10 -291 53 -8 7
-20 13 -25 13 -13 0 -105 88 -130 125 -90 132 -97 340 -16 470 124 198 345
277 551 195z"/>
</g>
</svg>
